<mxfile host="app.diagrams.net" agent="Mozilla/5.0 (Windows NT 10.0; Win64; x64) AppleWebKit/537.36 (KHTML, like Gecko) Chrome/137.0.0.0 Safari/537.36" version="27.1.6">
  <diagram name="Page-1" id="JITYXDc43PmbtBC1RbTy">
    <mxGraphModel dx="1426" dy="783" grid="1" gridSize="10" guides="1" tooltips="1" connect="1" arrows="1" fold="1" page="1" pageScale="1" pageWidth="827" pageHeight="1169" math="0" shadow="0">
      <root>
        <mxCell id="0" />
        <mxCell id="1" parent="0" />
        <mxCell id="Gl4yX6L0IOYnr_db-FjY-12" value="" style="rounded=1;arcSize=10;dashed=1;fillColor=none;gradientColor=none;dashPattern=1 1;strokeWidth=3;" vertex="1" parent="1">
          <mxGeometry x="350" y="330" width="280" height="150" as="geometry" />
        </mxCell>
        <mxCell id="Gl4yX6L0IOYnr_db-FjY-11" value="" style="rounded=1;arcSize=10;dashed=1;fillColor=none;gradientColor=none;dashPattern=1 1;strokeWidth=3;" vertex="1" parent="1">
          <mxGeometry x="350" y="150" width="279.5" height="140" as="geometry" />
        </mxCell>
        <mxCell id="Gl4yX6L0IOYnr_db-FjY-1" value="Local Physical Save" style="shape=image;html=1;verticalAlign=top;verticalLabelPosition=bottom;labelBackgroundColor=#ffffff;imageAspect=0;aspect=fixed;image=https://cdn2.iconfinder.com/data/icons/freecns-cumulus/16/519554-050_Disk2-128.png;fontSize=18;" vertex="1" parent="1">
          <mxGeometry x="500" y="350" width="100" height="100" as="geometry" />
        </mxCell>
        <mxCell id="Gl4yX6L0IOYnr_db-FjY-10" style="edgeStyle=orthogonalEdgeStyle;rounded=0;orthogonalLoop=1;jettySize=auto;html=1;strokeWidth=3;" edge="1" parent="1" source="Gl4yX6L0IOYnr_db-FjY-2" target="Gl4yX6L0IOYnr_db-FjY-9">
          <mxGeometry relative="1" as="geometry" />
        </mxCell>
        <mxCell id="Gl4yX6L0IOYnr_db-FjY-2" value="FsLite" style="rounded=1;whiteSpace=wrap;html=1;fontSize=18;strokeWidth=3;" vertex="1" parent="1">
          <mxGeometry x="180" y="270" width="120" height="60" as="geometry" />
        </mxCell>
        <mxCell id="Gl4yX6L0IOYnr_db-FjY-5" value="" style="aspect=fixed;sketch=0;html=1;dashed=0;whitespace=wrap;verticalLabelPosition=bottom;verticalAlign=top;fillColor=#2875E2;strokeColor=#ffffff;points=[[0.005,0.63,0],[0.1,0.2,0],[0.9,0.2,0],[0.5,0,0],[0.995,0.63,0],[0.72,0.99,0],[0.5,1,0],[0.28,0.99,0]];shape=mxgraph.kubernetes.icon2;kubernetesLabel=1;prIcon=api" vertex="1" parent="1">
          <mxGeometry x="250" y="230" width="50" height="48" as="geometry" />
        </mxCell>
        <mxCell id="Gl4yX6L0IOYnr_db-FjY-6" value="" style="verticalLabelPosition=bottom;html=1;verticalAlign=top;align=center;strokeColor=none;fillColor=#00BEF2;shape=mxgraph.azure.cloud_service_package_file;" vertex="1" parent="1">
          <mxGeometry x="207.5" y="230" width="42.5" height="50" as="geometry" />
        </mxCell>
        <mxCell id="Gl4yX6L0IOYnr_db-FjY-7" value="FsLite Server" style="rounded=1;whiteSpace=wrap;html=1;fontSize=18;strokeWidth=3;" vertex="1" parent="1">
          <mxGeometry x="470" y="180.4" width="120" height="60" as="geometry" />
        </mxCell>
        <mxCell id="Gl4yX6L0IOYnr_db-FjY-4" value="" style="aspect=fixed;sketch=0;html=1;dashed=0;whitespace=wrap;verticalLabelPosition=bottom;verticalAlign=top;fillColor=#2875E2;strokeColor=#ffffff;points=[[0.005,0.63,0],[0.1,0.2,0],[0.9,0.2,0],[0.5,0,0],[0.995,0.63,0],[0.72,0.99,0],[0.5,1,0],[0.28,0.99,0]];shape=mxgraph.kubernetes.icon2;prIcon=api" vertex="1" parent="1">
          <mxGeometry x="550" y="160" width="40" height="38.4" as="geometry" />
        </mxCell>
        <mxCell id="Gl4yX6L0IOYnr_db-FjY-9" value="fsl.db" style="image;aspect=fixed;perimeter=ellipsePerimeter;html=1;align=center;shadow=0;dashed=0;spacingTop=3;image=img/lib/active_directory/database.svg;fontSize=18;strokeWidth=1;" vertex="1" parent="1">
          <mxGeometry x="199.46" y="390" width="81.08" height="60" as="geometry" />
        </mxCell>
        <mxCell id="Gl4yX6L0IOYnr_db-FjY-13" value="" style="verticalLabelPosition=bottom;html=1;verticalAlign=top;align=center;strokeColor=none;fillColor=#00BEF2;shape=mxgraph.azure.access_control;" vertex="1" parent="1">
          <mxGeometry x="480" y="160" width="40" height="38.4" as="geometry" />
        </mxCell>
        <mxCell id="Gl4yX6L0IOYnr_db-FjY-15" value="" style="endArrow=none;dashed=1;html=1;dashPattern=1 3;strokeWidth=3;rounded=0;exitX=1;exitY=0.25;exitDx=0;exitDy=0;entryX=0.5;entryY=1;entryDx=0;entryDy=0;" edge="1" parent="1" source="Gl4yX6L0IOYnr_db-FjY-9" target="Gl4yX6L0IOYnr_db-FjY-7">
          <mxGeometry width="50" height="50" relative="1" as="geometry">
            <mxPoint x="390" y="330" as="sourcePoint" />
            <mxPoint x="440" y="280" as="targetPoint" />
            <Array as="points">
              <mxPoint x="320" y="406" />
              <mxPoint x="320" y="320" />
              <mxPoint x="560" y="320" />
            </Array>
          </mxGeometry>
        </mxCell>
        <mxCell id="Gl4yX6L0IOYnr_db-FjY-16" value="" style="html=1;verticalLabelPosition=bottom;align=center;labelBackgroundColor=#ffffff;verticalAlign=top;strokeWidth=2;strokeColor=#0080F0;shadow=0;dashed=0;shape=mxgraph.ios7.icons.settings;" vertex="1" parent="1">
          <mxGeometry x="360" y="164.2" width="30" height="30" as="geometry" />
        </mxCell>
        <mxCell id="Gl4yX6L0IOYnr_db-FjY-17" value="" style="html=1;verticalLabelPosition=bottom;align=center;labelBackgroundColor=#ffffff;verticalAlign=top;strokeWidth=2;strokeColor=#0080F0;shadow=0;dashed=0;shape=mxgraph.ios7.icons.settings;" vertex="1" parent="1">
          <mxGeometry x="360" y="340" width="30" height="30" as="geometry" />
        </mxCell>
        <mxCell id="Gl4yX6L0IOYnr_db-FjY-18" value="fsl_locality" style="text;html=1;align=center;verticalAlign=middle;resizable=0;points=[];autosize=1;strokeColor=none;fillColor=none;fontSize=15;" vertex="1" parent="1">
          <mxGeometry x="345" y="370" width="90" height="30" as="geometry" />
        </mxCell>
        <mxCell id="Gl4yX6L0IOYnr_db-FjY-19" value="fsl_server" style="text;html=1;align=center;verticalAlign=middle;resizable=0;points=[];autosize=1;strokeColor=none;fillColor=none;fontSize=15;" vertex="1" parent="1">
          <mxGeometry x="345" y="195.39999999999998" width="90" height="30" as="geometry" />
        </mxCell>
        <mxCell id="Gl4yX6L0IOYnr_db-FjY-20" value="" style="shape=curlyBracket;whiteSpace=wrap;html=1;rounded=1;flipH=1;labelPosition=right;verticalLabelPosition=middle;align=left;verticalAlign=middle;strokeWidth=3;" vertex="1" parent="1">
          <mxGeometry x="650" y="140" width="20" height="340" as="geometry" />
        </mxCell>
        <mxCell id="Gl4yX6L0IOYnr_db-FjY-21" value="Optional" style="text;html=1;align=center;verticalAlign=middle;resizable=0;points=[];autosize=1;strokeColor=none;fillColor=none;fontSize=18;" vertex="1" parent="1">
          <mxGeometry x="660" y="290" width="90" height="40" as="geometry" />
        </mxCell>
      </root>
    </mxGraphModel>
  </diagram>
</mxfile>
